<?xml version="1.0" encoding="iso-8859-1"?>
<!-- Generator: Adobe Illustrator 16.0.0, SVG Export Plug-In . SVG Version: 6.00 Build 0)  -->
<!DOCTYPE svg PUBLIC "-//W3C//DTD SVG 1.1//EN" "http://www.w3.org/Graphics/SVG/1.1/DTD/svg11.dtd">
<svg version="1.1" xmlns="http://www.w3.org/2000/svg" xmlns:xlink="http://www.w3.org/1999/xlink" x="0px" y="0px" width="64px"
	 height="49px" viewBox="0 0 64 49" style="enable-background:new 0 0 64 49;" xml:space="preserve">
<g id="Layer_45">
	<g>
		<path d="M64,24c0-3.859-3.141-7-7-7h-7c-0.342,0-0.677,0.035-1,0.102V5c0-2.756-2.243-5-5-5H20c-2.757,0.001-5,2.244-5,5v12.102
			C14.676,17.035,14.342,17,14,17H7c-3.86,0-7,3.141-7,7l0.004,0.002H0c0,3.164,2.112,5.846,5,6.709v6.299c0,4.41,3.589,8,8,8V45h2
			v2c0,1.105,0.896,2,2,2s2-0.895,2-2v-2h26v2c0,1.105,0.896,2,2,2s2-0.895,2-2v-2h2v0.01c4.411,0,8-3.59,8-8v-6.299
			c2.889-0.863,5-3.545,5-6.709h-0.004L64,24z M57,27.002c-1.104,0-2,0.895-2,2v8.008c0,2.205-1.795,4-4,4V41H13v0.01
			c-2.206,0-4-1.795-4-4v-8.008c0-1.105-0.896-2-2-2c-1.654,0-3-1.346-3-3H3.996L4,24c0-1.654,1.346-3,3-3h7
			c0.55,0,0.998,0.447,1,0.998V32c0,2.758,2.243,5,5,5v-4c-0.551,0-1-0.448-1-1V22h0c0-0.001,0-0.002,0-0.004V5c0-0.551,0.449-1,1-1
			h24c0.551,0,1,0.449,1,1v20H19v4h26v3c0,0.552-0.449,1-1,1H20v4h24c2.757,0,5-2.242,5-5V22c0-0.551,0.449-1,1-1h7
			c1.654,0,3,1.346,3,3l0.004,0.002H60C60,25.656,58.654,27.002,57,27.002z"/>
		<circle cx="28" cy="10" r="2"/>
		<circle cx="36" cy="10" r="2"/>
		<circle cx="28" cy="18" r="2"/>
		<circle cx="36" cy="18" r="2"/>
	</g>
</g>
<g id="Layer_1">
</g>
</svg>
