<?xml version="1.0" encoding="iso-8859-1"?>
<!-- Generator: Adobe Illustrator 16.0.0, SVG Export Plug-In . SVG Version: 6.00 Build 0)  -->
<!DOCTYPE svg PUBLIC "-//W3C//DTD SVG 1.1//EN" "http://www.w3.org/Graphics/SVG/1.1/DTD/svg11.dtd">
<svg version="1.1" xmlns="http://www.w3.org/2000/svg" xmlns:xlink="http://www.w3.org/1999/xlink" x="0px" y="0px" width="64px"
	 height="64px" viewBox="0 0 64 64" style="enable-background:new 0 0 64 64;" xml:space="preserve">
<g id="Layer_37">
	<path d="M64,42c0-3.309-2.691-6-6-6H40v-1c0-1.105-0.896-2-2-2s-2,0.895-2,2v1h-2v-1c0-1.105-0.896-2-2-2s-2,0.895-2,2v1h-2v-1
		c0-1.105-0.896-2-2-2s-2,0.895-2,2v1H12.93V8c0-2.206,1.794-4,4-4c1.062,0,2.061,0.412,2.815,1.16l3.604,3.973
		c-0.575,1.029-0.885,2.191-0.885,3.402c0,1.869,0.729,3.627,2.051,4.949c0.391,0.391,0.902,0.586,1.414,0.586
		s1.024-0.195,1.414-0.586l7.07-7.07c0.781-0.781,0.781-2.047,0-2.828c-1.321-1.322-3.079-2.051-4.949-2.051
		c-1.152,0-2.261,0.277-3.253,0.8l-3.561-3.924c-0.011-0.013-0.025-0.021-0.036-0.032c-0.012-0.012-0.02-0.027-0.031-0.039
		C21.074,0.831,19.065,0,16.93,0c-4.411,0-8,3.588-8,8v28H6c-3.309,0-6,2.691-6,6c0,2.787,1.913,5.129,4.492,5.8l3.61,10.832
		C8.375,59.449,9.139,60,10,60h2.764l-0.553,1.105c-0.494,0.988-0.093,2.189,0.895,2.684C13.393,63.932,13.698,64,13.999,64
		c0.733,0,1.44-0.405,1.791-1.105L17.236,60h29.527l1.447,2.895c0.351,0.7,1.057,1.105,1.791,1.105c0.301,0,0.605-0.068,0.893-0.211
		c0.988-0.494,1.389-1.695,0.895-2.684L51.236,60H54c0.861,0,1.625-0.551,1.897-1.368l3.61-10.832C62.088,47.129,64,44.787,64,42z
		 M29.632,9.539l-3.163,3.163c-0.003-0.056-0.004-0.111-0.004-0.167c0-0.801,0.312-1.555,0.879-2.121
		c0.567-0.567,1.32-0.879,2.122-0.879C29.521,9.535,29.577,9.536,29.632,9.539z M58,44c-0.028,0-0.055,0.007-0.082,0.008
		c-0.062,0.002-0.123,0.01-0.185,0.019c-0.073,0.01-0.145,0.021-0.215,0.038c-0.05,0.013-0.099,0.029-0.147,0.046
		c-0.075,0.024-0.148,0.051-0.22,0.085c-0.045,0.021-0.087,0.046-0.13,0.07c-0.067,0.038-0.133,0.076-0.195,0.121
		c-0.045,0.033-0.086,0.07-0.129,0.106c-0.053,0.046-0.105,0.093-0.154,0.144c-0.041,0.045-0.078,0.092-0.115,0.141
		c-0.042,0.054-0.083,0.107-0.119,0.166c-0.032,0.051-0.059,0.104-0.086,0.158c-0.033,0.064-0.064,0.131-0.09,0.199
		c-0.009,0.023-0.022,0.043-0.03,0.066L52.559,56H11.441L7.897,45.367c-0.008-0.023-0.021-0.043-0.03-0.066
		c-0.026-0.068-0.056-0.133-0.089-0.197c-0.028-0.056-0.056-0.11-0.088-0.162c-0.035-0.056-0.074-0.107-0.114-0.159
		c-0.04-0.052-0.079-0.103-0.123-0.149c-0.044-0.047-0.093-0.089-0.142-0.131c-0.047-0.041-0.093-0.083-0.144-0.119
		c-0.055-0.04-0.114-0.074-0.173-0.108c-0.051-0.029-0.101-0.06-0.154-0.083c-0.062-0.029-0.128-0.053-0.194-0.076
		c-0.058-0.02-0.114-0.039-0.173-0.053c-0.063-0.016-0.126-0.025-0.191-0.035c-0.069-0.01-0.137-0.018-0.207-0.02
		C6.049,44.006,6.025,44,6,44c-1.103,0-2-0.897-2-2c0-1.104,0.897-2,2-2h52c1.104,0,2,0.896,2,2C60,43.103,59.104,44,58,44z"/>
</g>
<g id="Layer_1">
</g>
</svg>
