<?xml version="1.0" encoding="iso-8859-1"?>
<!-- Generator: Adobe Illustrator 16.0.0, SVG Export Plug-In . SVG Version: 6.00 Build 0)  -->
<!DOCTYPE svg PUBLIC "-//W3C//DTD SVG 1.1//EN" "http://www.w3.org/Graphics/SVG/1.1/DTD/svg11.dtd">
<svg version="1.1" xmlns="http://www.w3.org/2000/svg" xmlns:xlink="http://www.w3.org/1999/xlink" x="0px" y="0px" width="64px"
	 height="48px" viewBox="0 0 64 48" style="enable-background:new 0 0 64 48;" xml:space="preserve">
<g id="Layer_32">
	<path d="M56,18H24c0-4.411-3.589-8-8-8H8c-1.458,0-2.822,0.398-4,1.082V2c0-1.104-0.896-2-2-2S0,0.896,0,2v44c0,1.104,0.896,2,2,2
		s2-0.896,2-2v-8h56v8c0,1.104,0.896,2,2,2s2-0.896,2-2V26C64,21.589,60.411,18,56,18z M8,14h8c2.206,0,4,1.795,4,4H4
		C4,15.795,5.794,14,8,14z M4,22h12v12H4V22z M60,34H20V22h36c2.205,0,4,1.795,4,4V34z"/>
</g>
<g id="Layer_1">
</g>
</svg>
