<?xml version="1.0" encoding="iso-8859-1"?>
<!-- Generator: Adobe Illustrator 16.0.0, SVG Export Plug-In . SVG Version: 6.00 Build 0)  -->
<!DOCTYPE svg PUBLIC "-//W3C//DTD SVG 1.1//EN" "http://www.w3.org/Graphics/SVG/1.1/DTD/svg11.dtd">
<svg version="1.1" xmlns="http://www.w3.org/2000/svg" xmlns:xlink="http://www.w3.org/1999/xlink" x="0px" y="0px" width="44px"
	 height="64px" viewBox="0 0 44 64" style="enable-background:new 0 0 44 64;" xml:space="preserve">
<g id="Layer_14">
	<path d="M44,2c0-1.104-0.896-2-2-2H2C0.896,0,0,0.896,0,2v25.999V28l0,0v4c0,3.309,2.691,5.999,5.999,6l0,0h10c0,5.416,0,20,0,20
		c0,3.309,2.691,6,6,6s6-2.691,6-6V38h10c3.309,0,6-2.691,6-6v-4l0,0v-0.001V2z M4,4h36v21.999h-4V12c0-1.104-0.896-2-2-2
		s-2,0.896-2,2v13.999h-4V12c0-1.104-0.896-2-2-2s-2,0.896-2,2v13.999h-4V12c0-1.104-0.896-2-2-2s-2,0.896-2,2v13.999h-4V12
		c0-1.104-0.896-2-2-2s-2,0.896-2,2v13.999H4V4z M22,60c-1.103,0-2-0.897-2-2l0-20h4v20C24,59.103,23.104,60,22,60z M38,34H26h-8
		l0,0c0,0,0,0-0.001,0H6c-1.103,0-2-0.897-2-2v-2h36v2C40,33.103,39.104,34,38,34z"/>
</g>
<g id="Layer_1">
</g>
</svg>
