<?xml version="1.0" encoding="iso-8859-1"?>
<!-- Generator: Adobe Illustrator 16.0.0, SVG Export Plug-In . SVG Version: 6.00 Build 0)  -->
<!DOCTYPE svg PUBLIC "-//W3C//DTD SVG 1.1//EN" "http://www.w3.org/Graphics/SVG/1.1/DTD/svg11.dtd">
<svg version="1.1" xmlns="http://www.w3.org/2000/svg" xmlns:xlink="http://www.w3.org/1999/xlink" x="0px" y="0px" width="54px"
	 height="64px" viewBox="0 0 54 64" style="enable-background:new 0 0 54 64;" xml:space="preserve">
<g id="Layer_39">
	<g>
		<circle cx="27" cy="52" r="2"/>
		<path d="M33,28c1.104,0,2-0.896,2-2v-4c0-1.104-0.896-2-2-2s-2,0.896-2,2v4C31,27.104,31.896,28,33,28z"/>
		<path d="M21,28c1.104,0,2-0.896,2-2v-4c0-1.104-0.896-2-2-2s-2,0.896-2,2v4C19,27.104,19.896,28,21,28z"/>
		<path d="M52,0H2C0.896,0,0,0.896,0,2v56c0,1.104,0.896,2,2,2h4v2c0,1.104,0.896,2,2,2s2-0.896,2-2v-2h33v2c0,1.104,0.896,2,2,2
			s2-0.896,2-2v-2h5c1.104,0,2-0.896,2-2V2C54,0.896,53.104,0,52,0z M50,44H29V4h21V44z M25,4v40H4V4H25z M4,56v-8h22.995
			c0.002,0,0.003,0,0.005,0s0.003,0,0.005,0H50v8H4z"/>
	</g>
</g>
<g id="Layer_1">
</g>
</svg>
