<?xml version="1.0" encoding="iso-8859-1"?>
<!-- Generator: Adobe Illustrator 16.0.0, SVG Export Plug-In . SVG Version: 6.00 Build 0)  -->
<!DOCTYPE svg PUBLIC "-//W3C//DTD SVG 1.1//EN" "http://www.w3.org/Graphics/SVG/1.1/DTD/svg11.dtd">
<svg version="1.1" xmlns="http://www.w3.org/2000/svg" xmlns:xlink="http://www.w3.org/1999/xlink" x="0px" y="0px" width="54px"
	 height="64px" viewBox="0 0 54 64" style="enable-background:new 0 0 54 64;" xml:space="preserve">
<g id="Layer_6">
	<path d="M54,2c0-0.347-0.09-0.693-0.271-1.004C53.371,0.379,52.713,0,52,0H2C1.288,0,0.628,0.379,0.27,0.996
		C0.09,1.307,0,1.652,0,2C0,2,0,62,0,62c0,1.104,0.895,2,2,2h15c1.104,0,2-0.896,2-2c0-2.925-0.106-6.524-0.486-10h16.97
		C35.105,55.476,35,59.075,35,62c0,1.104,0.895,2,2,2h15c1.104,0,2-0.896,2-2V2z M42.062,43H50v17H39.025
		C39.219,51.659,40.576,43.873,42.062,43z M50,39h-7.832c-2.023-1.33-5.506-13.086-7.861-26.387C40.713,11.82,46.273,9.839,50,7.048
		V39z M47.369,4C43.496,6.775,36.646,9,28,9C19.741,9,11.471,6.929,6.875,4H47.369z M19.739,12.354
		C17.384,25.76,13.87,37.66,11.832,39H4V6.833C7.909,9.575,13.768,11.441,19.739,12.354z M4,43h7.937
		c1.487,0.873,2.843,8.659,3.037,17H4V43z M15.399,41.003c1.592-2.105,3.364-6.31,5.416-14.519
		c1.381-5.522,2.434-11.09,2.896-13.668c0.432,0.035,0.861,0.067,1.289,0.092V48h-7.073C17.383,45.152,16.578,42.645,15.399,41.003z
		 M29,48V12.984c0.439-0.008,0.877-0.021,1.311-0.041c0.475,2.631,1.514,8.104,2.873,13.541c2.053,8.209,3.824,12.413,5.418,14.519
		c-1.18,1.642-1.984,4.149-2.529,6.997H29z"/>
</g>
<g id="Layer_1">
</g>
</svg>
