<?xml version="1.0" encoding="iso-8859-1"?>
<!-- Generator: Adobe Illustrator 16.0.0, SVG Export Plug-In . SVG Version: 6.00 Build 0)  -->
<!DOCTYPE svg PUBLIC "-//W3C//DTD SVG 1.1//EN" "http://www.w3.org/Graphics/SVG/1.1/DTD/svg11.dtd">
<svg version="1.1" xmlns="http://www.w3.org/2000/svg" xmlns:xlink="http://www.w3.org/1999/xlink" x="0px" y="0px" width="52px"
	 height="64px" viewBox="0 0 52 64" style="enable-background:new 0 0 52 64;" xml:space="preserve">
<g id="Layer_43">
	<path d="M50,24h-4c-1.104,0-2,0.896-2,2v10h-2V2c0-1.104-0.896-2-2-2s-2,0.896-2,2v3H14V2c0-1.104-0.896-2-2-2s-2,0.896-2,2v34H8
		V26c0-1.104-0.896-2-2-2H2c-1.104,0-2,0.896-2,2s0.896,2,2,2h2v10c0,1.104,0.896,2,2,2h4.299l12.5,10L9.75,60.438
		c-0.861,0.69-1.002,1.948-0.312,2.812C9.834,63.743,10.414,64,11.002,64c0.438,0,0.879-0.143,1.248-0.438L26,52.561l13.75,11.001
		C40.119,63.857,40.561,64,40.998,64c0.588,0,1.168-0.257,1.563-0.75c0.69-0.863,0.55-2.121-0.312-2.812L29.201,50l12.5-10H46
		c1.104,0,2-0.896,2-2V28h2c1.104,0,2-0.896,2-2S51.104,24,50,24z M38,9v10H14V9H38z M14,23h24v13H14V23z M16.701,40h18.598
		L26,47.439L16.701,40z"/>
</g>
<g id="Layer_1">
</g>
</svg>
