<?xml version="1.0" encoding="iso-8859-1"?>
<!-- Generator: Adobe Illustrator 16.0.0, SVG Export Plug-In . SVG Version: 6.00 Build 0)  -->
<!DOCTYPE svg PUBLIC "-//W3C//DTD SVG 1.1//EN" "http://www.w3.org/Graphics/SVG/1.1/DTD/svg11.dtd">
<svg version="1.1" xmlns="http://www.w3.org/2000/svg" xmlns:xlink="http://www.w3.org/1999/xlink" x="0px" y="0px" width="42px"
	 height="64px" viewBox="0 0 42 64" style="enable-background:new 0 0 42 64;" xml:space="preserve">
<g id="Layer_47">
	<g>
		<path d="M36,0H8C4.7,0,2,2.7,2,6v4c-1.104,0-2,0.896-2,2v10c0,1.104,0.896,2,2,2v16c-1.104,0-2,0.896-2,2v10c0,1.104,0.896,2,2,2
			v4c0,3.3,2.7,6,6,6h28c3.3,0,6-2.7,6-6V6C42,2.7,39.3,0,36,0z M38,58c0,1.1-0.9,2-2,2H8c-1.1,0-2-0.9-2-2v-9v-1V6c0-1.1,0.9-2,2-2
			h28c1.1,0,2,0.9,2,2V58z"/>
		<circle cx="31" cy="32" r="3"/>
	</g>
</g>
<g id="Layer_1">
</g>
</svg>
