<?xml version="1.0" encoding="iso-8859-1"?>
<!-- Generator: Adobe Illustrator 16.0.0, SVG Export Plug-In . SVG Version: 6.00 Build 0)  -->
<!DOCTYPE svg PUBLIC "-//W3C//DTD SVG 1.1//EN" "http://www.w3.org/Graphics/SVG/1.1/DTD/svg11.dtd">
<svg version="1.1" xmlns="http://www.w3.org/2000/svg" xmlns:xlink="http://www.w3.org/1999/xlink" x="0px" y="0px" width="64px"
	 height="64px" viewBox="0 0 64 64" style="enable-background:new 0 0 64 64;" xml:space="preserve">
<g id="Layer_48">
	<path d="M62,0H20c-1.104,0-2,0.896-2,2v3c0,1.104,0.896,2,2,2s2-0.896,2-2V4h23v6c0,1.104,0.896,2,2,2s2-0.896,2-2V4h11v41H49V24
		c0-1.104-0.896-2-2-2s-2,0.896-2,2v6h-4c-1.104,0-2,0.896-2,2s0.896,2,2,2h4v13v1v12H27V34h2c1.104,0,2-0.896,2-2s-0.896-2-2-2h-8
		c-1.104,0-2,0.896-2,2s0.896,2,2,2h2v26H4V34h4c1.104,0,2-0.896,2-2s-0.896-2-2-2H4v-6h16c1.104,0,2-0.896,2-2v-3
		c0-1.104-0.896-2-2-2s-2,0.896-2,2v1H2c-1.104,0-2,0.896-2,2v40c0,1.104,0.896,2,2,2h45c1.104,0,2-0.896,2-2V49h13
		c1.104,0,2-0.896,2-2V2C64,0.896,63.104,0,62,0z"/>
</g>
<g id="Layer_1">
</g>
</svg>
