<?xml version="1.0" encoding="iso-8859-1"?>
<!-- Generator: Adobe Illustrator 16.0.0, SVG Export Plug-In . SVG Version: 6.00 Build 0)  -->
<!DOCTYPE svg PUBLIC "-//W3C//DTD SVG 1.1//EN" "http://www.w3.org/Graphics/SVG/1.1/DTD/svg11.dtd">
<svg version="1.1" xmlns="http://www.w3.org/2000/svg" xmlns:xlink="http://www.w3.org/1999/xlink" x="0px" y="0px" width="40px"
	 height="64px" viewBox="0 0 40 64" style="enable-background:new 0 0 40 64;" xml:space="preserve">
<g id="Layer_42">
	<path d="M34,0H6C2.7,0,0,2.7,0,6v48c0,3.3,2.7,6,6,6v2c0,1.104,0.896,2,2,2s2-0.896,2-2v-2h20v2c0,1.104,0.896,2,2,2s2-0.896,2-2
		v-2c3.3,0,6-2.7,6-6V6C40,2.7,37.3,0,34,0z M6,4h28c1.1,0,2,0.9,2,2v14h-4v-4.998c0-1.105-0.896-2-2-2s-2,0.895-2,2V20H4V6
		C4,4.9,4.9,4,6,4z M34,56H6c-1.1,0-2-0.9-2-2V24h24v5.002c0,1.104,0.896,2,2,2s2-0.896,2-2V24h4v30C36,55.1,35.1,56,34,56z"/>
</g>
<g id="Layer_1">
</g>
</svg>
