<?xml version="1.0" encoding="iso-8859-1"?>
<!-- Generator: Adobe Illustrator 16.0.0, SVG Export Plug-In . SVG Version: 6.00 Build 0)  -->
<!DOCTYPE svg PUBLIC "-//W3C//DTD SVG 1.1//EN" "http://www.w3.org/Graphics/SVG/1.1/DTD/svg11.dtd">
<svg version="1.1" xmlns="http://www.w3.org/2000/svg" xmlns:xlink="http://www.w3.org/1999/xlink" x="0px" y="0px" width="64px"
	 height="36px" viewBox="0 0 64 36" style="enable-background:new 0 0 64 36;" xml:space="preserve">
<g id="Layer_10">
	<path d="M58,24h-0.084C56.89,10.595,45.663,0,32,0S7.11,10.595,6.084,24H6c-3.309,0-6,2.691-6,6s2.691,6,6,6h52
		c3.309,0,6-2.691,6-6S61.309,24,58,24z M58,32H6c-1.104,0-2-0.897-2-2s0.896-2,2-2h2c1.104,0,2-0.896,2-2
		c0-8.531,4.885-15.938,12-19.586V14c0,1.104,0.896,2,2,2s2-0.896,2-2V4.839c1.29-0.366,2.626-0.619,4-0.744V14c0,1.104,0.896,2,2,2
		s2-0.896,2-2V4.095c1.374,0.125,2.71,0.378,4,0.744V14c0,1.104,0.896,2,2,2s2-0.896,2-2V6.414C49.115,10.062,54,17.469,54,26
		c0,1.104,0.896,2,2,2h2c1.104,0,2,0.897,2,2S59.104,32,58,32z"/>
</g>
<g id="Layer_1">
</g>
</svg>
