<?xml version="1.0" encoding="iso-8859-1"?>
<!-- Generator: Adobe Illustrator 16.0.0, SVG Export Plug-In . SVG Version: 6.00 Build 0)  -->
<!DOCTYPE svg PUBLIC "-//W3C//DTD SVG 1.1//EN" "http://www.w3.org/Graphics/SVG/1.1/DTD/svg11.dtd">
<svg version="1.1" xmlns="http://www.w3.org/2000/svg" xmlns:xlink="http://www.w3.org/1999/xlink" x="0px" y="0px" width="64px"
	 height="64px" viewBox="0 0 64 64" style="enable-background:new 0 0 64 64;" xml:space="preserve">
<g id="Layer_8">
	<path d="M63.962,17.614c-0.001-0.001-0.001-0.003-0.001-0.005c-0.033-0.169-0.096-0.33-0.172-0.484
		c-0.02-0.04-0.04-0.077-0.062-0.116c-0.086-0.152-0.187-0.297-0.312-0.423l-16-16c-0.126-0.126-0.271-0.226-0.422-0.312
		c-0.039-0.022-0.077-0.043-0.117-0.062c-0.154-0.076-0.314-0.139-0.484-0.172c-0.001,0-0.003,0-0.004,0C46.26,0.013,46.131,0,46,0
		H2C0.896,0,0,0.896,0,2v60c0,1.104,0.896,2,2,2h60c1.104,0,2-0.896,2-2V18C64,17.869,63.986,17.74,63.962,17.614z M57.172,16H48
		V6.829L57.172,16z M36,32H26c-1.104,0-2,0.896-2,2v16h-2V23.454l9-8.676l13,12.533v21.283C44,49.369,43.367,50,42.59,50H38V34
		C38,32.896,37.104,32,36,32z M34,36v14h-6V36H34z M4,4h14v56H4V4z M22,60v-6h20.59c2.983,0,5.41-2.426,5.41-5.406V31.167
		l1.611,1.554C50,33.095,50.5,33.281,51,33.281c0.523,0,1.047-0.205,1.439-0.612c0.768-0.795,0.744-2.062-0.051-2.828l-20-19.281
		c-0.774-0.747-2.002-0.747-2.776,0L22,17.898V4h22v14c0,1.104,0.896,2,2,2h14v40H22z"/>
</g>
<g id="Layer_1">
</g>
</svg>
