<?xml version="1.0" encoding="iso-8859-1"?>
<!-- Generator: Adobe Illustrator 16.0.0, SVG Export Plug-In . SVG Version: 6.00 Build 0)  -->
<!DOCTYPE svg PUBLIC "-//W3C//DTD SVG 1.1//EN" "http://www.w3.org/Graphics/SVG/1.1/DTD/svg11.dtd">
<svg version="1.1" xmlns="http://www.w3.org/2000/svg" xmlns:xlink="http://www.w3.org/1999/xlink" x="0px" y="0px" width="62px"
	 height="64px" viewBox="0 0 62 64" style="enable-background:new 0 0 62 64;" xml:space="preserve">
<g id="Layer_63">
	<g>
		<path d="M31,44.002c1.104,0,2-0.896,2-2v-2.001c0-1.104-0.896-1.999-2-1.999s-2,0.895-2,1.999v2.001
			C29,43.106,29.896,44.002,31,44.002z"/>
		<path d="M31,24c-4.418,0-8,3.582-8,8l0.001,0.001H23v0.002l-0.001-0.002H19v12v0.001c-0.002,4.418,3.581,7.999,7.999,7.999H27h8
			c4.419,0.002,8-3.581,8-7.999v-0.001h-0.001v-12H39h-0.001L39,32C39,27.582,35.418,24,31,24z M27,32c0-2.209,1.791-4,4-4
			s4,1.791,4,4l0.002,0.001h-8.004L27,32z M39,36v8.001h0.001c0,2.209-1.792,3.999-4,4H35v0.001h-8c-2.209,0-3.999-1.792-4-4h-0.003
			l0.002-0.001V36L23,35.998V36H39z"/>
		<path d="M61.414,29.586l-29-29c-0.78-0.781-2.048-0.781-2.828,0l-29,29c-0.781,0.781-0.781,2.048,0,2.828
			c0.78,0.78,2.047,0.781,2.828,0L7,28.828V58c0,3.3,2.7,6,6,6h36c3.3,0,6-2.7,6-6V28.828l3.586,3.586
			c0.781,0.781,2.048,0.78,2.828,0C62.195,31.634,62.195,30.367,61.414,29.586z M51,58c0,1.1-0.9,2-2,2H13c-1.1,0-2-0.9-2-2V24.828
			l20-20l20,20V58z"/>
	</g>
</g>
<g id="Layer_1">
</g>
</svg>
