<?xml version="1.0" encoding="iso-8859-1"?>
<!-- Generator: Adobe Illustrator 16.0.0, SVG Export Plug-In . SVG Version: 6.00 Build 0)  -->
<!DOCTYPE svg PUBLIC "-//W3C//DTD SVG 1.1//EN" "http://www.w3.org/Graphics/SVG/1.1/DTD/svg11.dtd">
<svg version="1.1" xmlns="http://www.w3.org/2000/svg" xmlns:xlink="http://www.w3.org/1999/xlink" x="0px" y="0px" width="60px"
	 height="64px" viewBox="0 0 60 64" style="enable-background:new 0 0 60 64;" xml:space="preserve">
<g id="Layer_59">
	<path d="M59.389,24.661l-25-24.101c-0.775-0.747-2.002-0.747-2.777,0l-25,24.101c-0.795,0.767-0.818,2.033-0.051,2.828
		c0.768,0.796,2.033,0.817,2.828,0.052l2.646-2.551v11.742c-4.564,0.837-9.7,2.121-10.525,2.329C0.622,39.285,0,40.084,0,41v12
		c0,1.104,0.896,2,2,2h9.33c5.018,2.906,17.883,9,21.545,9c3.821,0,19.395-8.441,21.539-10.586c0.847-0.846,1.066-2.041,0.588-3.196
		c-0.219-0.528-0.603-1.05-1.096-1.54c0.039-0.271,0.06-0.551,0.06-0.833V24.99l2.646,2.551C57,27.915,57.5,28.101,58,28.101
		c0.523,0,1.047-0.205,1.439-0.612C60.207,26.693,60.184,25.427,59.389,24.661z M16.035,21.133L33,4.778l16.966,16.356V46.34
		c-0.965-0.324-1.961-0.517-2.896-0.517c-0.656,0-1.271,0.094-1.828,0.279c-1.107,0.369-2.195,0.81-3.242,1.259V28
		c0-1.104-0.896-2-2-2H26c-1.104,0-2,0.896-2,2v10.023C20.573,36.578,18.835,36,17.875,36c-0.517,0-1.141,0.043-1.84,0.119V21.133z
		 M38,44.533c-0.618-0.508-1.393-0.967-2.337-1.371c-1.146-0.492-2.671-1.174-4.339-1.922c-1.213-0.543-2.311-1.033-3.324-1.48V30
		h10V44.533z M32.871,60c-2.146-0.006-14.27-5.296-19.967-8.715C12.594,51.099,12.237,51,11.875,51H4v-8.434
		C7.956,41.611,15.186,40,17.801,39.997c1.309,0.154,8.191,3.237,11.889,4.894c1.691,0.758,3.236,1.449,4.398,1.947
		c1.358,0.583,1.635,1.033,1.658,1.033V47.87c-0.057,0.374-0.914,1.207-1.986,1.89l-8.072-3.588
		c-1.01-0.449-2.191,0.006-2.641,1.016c-0.448,1.01,0.006,2.191,1.016,2.641l9,4c0.117,0.051,0.237,0.087,0.357,0.115
		c0.418,0.145,0.863,0.242,1.355,0.242c1.81,0,3.925-0.959,6.602-2.172c1.666-0.755,3.387-1.535,5.131-2.116
		c0.146-0.049,0.34-0.074,0.562-0.074c1.274,0,2.863,0.761,3.705,1.401C47.198,53.715,35.059,59.924,32.871,60z"/>
</g>
<g id="Layer_1">
</g>
</svg>
