<?xml version="1.0" encoding="iso-8859-1"?>
<!-- Generator: Adobe Illustrator 16.0.0, SVG Export Plug-In . SVG Version: 6.00 Build 0)  -->
<!DOCTYPE svg PUBLIC "-//W3C//DTD SVG 1.1//EN" "http://www.w3.org/Graphics/SVG/1.1/DTD/svg11.dtd">
<svg version="1.1" xmlns="http://www.w3.org/2000/svg" xmlns:xlink="http://www.w3.org/1999/xlink" x="0px" y="0px" width="62px"
	 height="64px" viewBox="0 0 62 64" style="enable-background:new 0 0 62 64;" xml:space="preserve">
<g id="Layer_65">
	<g>
		<path d="M21,27c-1.104,0-2,0.896-2,2v20c0,1.104,0.896,2,2,2h20c1.104,0,2-0.896,2-2V29c0-1.104-0.896-2-2-2H21z M39,37h-6v-6h6
			V37z M29,37h-6v-6h6V37z M23,41h6v6h-6V41z M33,41h6v6h-6V41z"/>
		<path d="M61.414,29.586l-29-29c-0.78-0.781-2.048-0.781-2.828,0l-29,29c-0.781,0.781-0.781,2.048,0,2.828
			c0.78,0.78,2.047,0.781,2.828,0L7,28.828V58c0,3.3,2.7,6,6,6h36c3.3,0,6-2.7,6-6V28.828l3.586,3.586
			c0.781,0.781,2.048,0.78,2.828,0C62.195,31.634,62.195,30.367,61.414,29.586z M51,58c0,1.1-0.9,2-2,2H13c-1.1,0-2-0.9-2-2V24.828
			l20-20l20,20V58z"/>
	</g>
</g>
<g id="Layer_1">
</g>
</svg>
