<?xml version="1.0" encoding="iso-8859-1"?>
<!-- Generator: Adobe Illustrator 16.0.0, SVG Export Plug-In . SVG Version: 6.00 Build 0)  -->
<!DOCTYPE svg PUBLIC "-//W3C//DTD SVG 1.1//EN" "http://www.w3.org/Graphics/SVG/1.1/DTD/svg11.dtd">
<svg version="1.1" xmlns="http://www.w3.org/2000/svg" xmlns:xlink="http://www.w3.org/1999/xlink" x="0px" y="0px" width="60px"
	 height="64px" viewBox="0 0 60 64" style="enable-background:new 0 0 60 64;" xml:space="preserve">
<g id="Layer_40">
	<g>
		<path d="M22.364,30.85c0.195,0.195,0.451,0.293,0.707,0.293s0.512-0.098,0.707-0.293L38.85,15.777
			c0.391-0.391,0.391-1.023,0-1.414s-1.023-0.391-1.414,0L22.364,29.436C21.974,29.826,21.974,30.459,22.364,30.85z"/>
		<path d="M37.436,22.293l-7.071,7.07c-0.391,0.391-0.391,1.023,0,1.414c0.195,0.195,0.451,0.293,0.707,0.293
			s0.512-0.098,0.707-0.293l7.071-7.07c0.391-0.391,0.391-1.023,0-1.414S37.826,21.902,37.436,22.293z"/>
		<path d="M23,23.07c0.256,0,0.512-0.098,0.707-0.293l7.071-7.07c0.391-0.391,0.391-1.023,0-1.414s-1.023-0.391-1.414,0l-7.071,7.07
			c-0.391,0.391-0.391,1.023,0,1.414C22.488,22.973,22.744,23.07,23,23.07z"/>
		<path d="M60,22c0-1.105-0.896-2-2-2h-6.095C50.891,8.803,41.456,0,30,0S9.109,8.803,8.095,20H2c-1.104,0-2,0.895-2,2
			c0,14.297,10.057,26.283,23.467,29.274L20.559,60H18c-1.104,0-2,0.895-2,2c0,1.104,0.896,2,2,2h3.998C21.999,64,22,64,22,64
			s0.002,0,0.003,0h15.993c0.002,0,0.002,0,0.004,0h0.002H42c1.104,0,2-0.896,2-2c0-1.105-0.896-2-2-2h-2.559l-2.908-8.726
			C49.943,48.283,60,36.297,60,22z M30,4c9.926,0,18,8.074,18,18c0,9.925-8.074,18-18,18c-9.925,0-18-8.075-18-18
			C12,12.074,20.075,4,30,4z M4.084,24h4.01C9.109,35.195,18.544,44,30,44s20.891-8.805,21.905-20h4.011
			C54.89,37.404,43.662,48,30,48C16.337,48,5.11,37.404,4.084,24z M35.225,60h-10.45l2.705-8.114C28.312,51.955,29.15,52,30,52
			s1.688-0.045,2.521-0.114L35.225,60z"/>
	</g>
</g>
<g id="Layer_1">
</g>
</svg>
