<?xml version="1.0" encoding="iso-8859-1"?>
<!-- Generator: Adobe Illustrator 16.0.0, SVG Export Plug-In . SVG Version: 6.00 Build 0)  -->
<!DOCTYPE svg PUBLIC "-//W3C//DTD SVG 1.1//EN" "http://www.w3.org/Graphics/SVG/1.1/DTD/svg11.dtd">
<svg version="1.1" xmlns="http://www.w3.org/2000/svg" xmlns:xlink="http://www.w3.org/1999/xlink" x="0px" y="0px" width="64px"
	 height="36px" viewBox="0 0 64 36" style="enable-background:new 0 0 64 36;" xml:space="preserve">
<g id="Layer_44">
	<g>
		<path d="M62,0H2C0.896,0,0,0.896,0,2s0.896,2,2,2h2v30c0,1.104,0.896,2,2,2s2-0.896,2-2V12h30v22c0,1.104,0.896,2,2,2h18
			c1.104,0,2-0.896,2-2V4h2c1.104,0,2-0.896,2-2S63.104,0,62,0z M42,20h14v12H42V20z M8,8V4h30v4H8z M56,16H42V4h14V16z"/>
		<circle cx="49" cy="10" r="2"/>
		<circle cx="49" cy="26" r="2"/>
	</g>
</g>
<g id="Layer_1">
</g>
</svg>
