<?xml version="1.0" encoding="iso-8859-1"?>
<!-- Generator: Adobe Illustrator 16.0.0, SVG Export Plug-In . SVG Version: 6.00 Build 0)  -->
<!DOCTYPE svg PUBLIC "-//W3C//DTD SVG 1.1//EN" "http://www.w3.org/Graphics/SVG/1.1/DTD/svg11.dtd">
<svg version="1.1" xmlns="http://www.w3.org/2000/svg" xmlns:xlink="http://www.w3.org/1999/xlink" x="0px" y="0px" width="52px"
	 height="64px" viewBox="0 0 52 64" style="enable-background:new 0 0 52 64;" xml:space="preserve">
<g id="Layer_15">
	<path d="M46,0H12C8.7,0,6,2.7,6,6v2c-3.309,0-6,2.691-6,6v11c0,0.886,0.583,1.666,1.432,1.918L27,34.494V41h-1
		c-1.104,0-2,0.896-2,2v19c0,1.104,0.896,2,2,2h6c1.104,0,2-0.896,2-2V43c0-1.104-0.896-2-2-2h-1v-8
		c0-0.906-0.607-1.664-1.435-1.909l0.003-0.009L4,23.507V14c0-1.103,0.897-2,2-2v2c0,3.3,2.7,6,6,6h34c3.3,0,6-2.7,6-6V6
		C52,2.7,49.3,0,46,0z M30,60h-2V45h2V60z M48,14c0,1.1-0.9,2-2,2H12c-1.1,0-2-0.9-2-2V6c0-1.1,0.9-2,2-2h34c1.1,0,2,0.9,2,2V14z"/>
</g>
<g id="Layer_1">
</g>
</svg>
