<?xml version="1.0" encoding="iso-8859-1"?>
<!-- Generator: Adobe Illustrator 16.0.0, SVG Export Plug-In . SVG Version: 6.00 Build 0)  -->
<!DOCTYPE svg PUBLIC "-//W3C//DTD SVG 1.1//EN" "http://www.w3.org/Graphics/SVG/1.1/DTD/svg11.dtd">
<svg version="1.1" xmlns="http://www.w3.org/2000/svg" xmlns:xlink="http://www.w3.org/1999/xlink" x="0px" y="0px" width="64px"
	 height="42px" viewBox="0 0 64 42" style="enable-background:new 0 0 64 42;" xml:space="preserve">
<g id="Layer_28">
	<path d="M52,0c-6.617,0-12,5.383-12,12H28c0-4.411,3.589-8,8-8c1.104,0,2-0.896,2-2s-0.896-2-2-2c-6.617,0-12,5.383-12,12v14
		c0,1.104,0.896,2,2,2s2-0.896,2-2v-2h12v2c0,1.104,0.896,2,2,2s2-0.896,2-2V12c0-4.411,3.589-8,8-8s8,3.589,8,8v10v4v8
		c0,2.205-1.795,4-4,4s-4-1.795-4-4c0-1.104-0.896-2-2-2s-2,0.896-2,2c0,2.205-1.795,4-4,4s-4-1.795-4-4c0-1.104-0.896-2-2-2
		s-2,0.896-2,2c0,2.205-1.795,4-4,4c-2.206,0-4-1.795-4-4c0-1.104-0.896-2-2-2s-2,0.896-2,2c0,2.205-1.794,4-4,4s-4-1.795-4-4
		c0-1.104-0.896-2-2-2s-2,0.896-2,2c0,2.205-1.794,4-4,4s-4-1.795-4-4c0-1.104-0.896-2-2-2s-2,0.896-2,2c0,4.411,3.589,8,8,8
		c2.39,0,4.533-1.059,6-2.727C15.467,40.941,17.61,42,20,42s4.533-1.059,6-2.727C27.467,40.941,29.61,42,32,42
		c2.391,0,4.533-1.059,6-2.727C39.467,40.941,41.609,42,44,42s4.533-1.059,6-2.727C51.467,40.941,53.609,42,56,42
		c4.411,0,8-3.589,8-8v-8v-4V12C64,5.383,58.617,0,52,0z M28,20v-4h12v4H28z"/>
</g>
<g id="Layer_1">
</g>
</svg>
