<?xml version="1.0" encoding="iso-8859-1"?>
<!-- Generator: Adobe Illustrator 16.0.0, SVG Export Plug-In . SVG Version: 6.00 Build 0)  -->
<!DOCTYPE svg PUBLIC "-//W3C//DTD SVG 1.1//EN" "http://www.w3.org/Graphics/SVG/1.1/DTD/svg11.dtd">
<svg version="1.1" xmlns="http://www.w3.org/2000/svg" xmlns:xlink="http://www.w3.org/1999/xlink" x="0px" y="0px" width="56px"
	 height="64px" viewBox="0 0 56 64" style="enable-background:new 0 0 56 64;" xml:space="preserve">
<g id="Layer_35">
	<g>
		<path d="M24,32h30c1.104,0,2-0.896,2-2c0-1.105-0.896-2-2-2H24c-1.104,0-2,0.895-2,2C22,31.104,22.896,32,24,32z"/>
		<path d="M54,34H9c-1.104,0-2,0.895-2,2c0,0.449,0.154,0.859,0.404,1.193C7.402,37.195,14.258,46.342,16,48.666V62
			c0,1.104,0.896,2,2,2h20c1.104,0,2-0.896,2-2v-8.119C48.986,52.883,56,45.248,56,36C56,34.895,55.104,34,54,34z M38,50
			c-1.104,0-2,0.895-2,2v8H20V48c0-0.451-0.155-0.863-0.407-1.197C19.595,46.802,13,38,13,38h38.84C50.865,44.773,45.039,50,38,50z"
			/>
		<path d="M17.99,30.199l2-20C19.997,10.133,20,10.066,20,10V4c0-1.105-0.896-2-2-2h-4c0-1.105-0.896-2-2-2H8C6.896,0,6,0.895,6,2H2
			C0.896,2,0,2.895,0,4v6c0,0.066,0.003,0.133,0.01,0.199l2,20C2.112,31.221,2.973,32,4,32h12C17.027,32,17.888,31.221,17.99,30.199
			z M16,6v2H4V6H16z M5.81,28l-1.6-16h11.58l-1.6,16H5.81z"/>
	</g>
</g>
<g id="Layer_1">
</g>
</svg>
