<?xml version="1.0" encoding="iso-8859-1"?>
<!-- Generator: Adobe Illustrator 16.0.0, SVG Export Plug-In . SVG Version: 6.00 Build 0)  -->
<!DOCTYPE svg PUBLIC "-//W3C//DTD SVG 1.1//EN" "http://www.w3.org/Graphics/SVG/1.1/DTD/svg11.dtd">
<svg version="1.1" xmlns="http://www.w3.org/2000/svg" xmlns:xlink="http://www.w3.org/1999/xlink" x="0px" y="0px" width="48px"
	 height="64px" viewBox="0 0 48 64" style="enable-background:new 0 0 48 64;" xml:space="preserve">
<g id="Layer_27">
	<g>
		<path d="M26,43v-7.867l9.029-5.418c0.947-0.568,1.254-1.797,0.686-2.744c-0.568-0.947-1.798-1.255-2.744-0.686L26,30.468V18
			c0-1.104-0.896-2-2-2s-2,0.896-2,2v8l-4.8-3.6c-0.884-0.661-2.137-0.482-2.8,0.4c-0.663,0.884-0.484,2.138,0.399,2.8L22,31v12
			c0,3.869-2.832,14.631-3.923,18.451c-0.173,0.604-0.052,1.252,0.326,1.754C18.781,63.705,19.373,64,20,64h8
			c0.631,0,1.226-0.299,1.604-0.805c0.377-0.506,0.494-1.16,0.313-1.766C29.878,61.298,26,48.204,26,43z M22.626,60
			c0.378-1.406,0.863-3.269,1.349-5.278c0.49,2.015,0.987,3.874,1.375,5.278H22.626z"/>
		<path d="M36.973,13.938C36.99,13.662,37,13.386,37,13.111C37,5.882,31.168,0,24,0S11,5.882,11,13.111
			c0,0.274,0.01,0.55,0.027,0.827C4.621,15.792,0,21.805,0,28.666C0,37.121,6.818,44,15.2,44c0.642,0,1.302-0.051,2.075-0.158
			c1.094-0.152,1.857-1.162,1.705-2.256s-1.168-1.865-2.256-1.705C16.138,39.962,15.653,40,15.2,40C9.024,40,4,34.916,4,28.666
			c0-5.569,4.107-10.382,9.555-11.194c0.547-0.082,1.035-0.386,1.35-0.84s0.428-1.019,0.311-1.56C15.072,14.412,15,13.752,15,13.111
			C15,8.087,19.037,4,24,4s9,4.087,9,9.111c0,0.641-0.072,1.3-0.215,1.961c-0.117,0.541-0.004,1.105,0.311,1.56
			s0.803,0.759,1.35,0.84C39.893,18.284,44,23.097,44,28.666C44,34.916,38.976,40,32.8,40c-0.453,0-0.938-0.038-1.524-0.119
			c-1.09-0.158-2.104,0.611-2.256,1.705c-0.152,1.094,0.611,2.104,1.705,2.256C31.498,43.949,32.158,44,32.8,44
			C41.182,44,48,37.121,48,28.666C48,21.805,43.379,15.792,36.973,13.938z"/>
	</g>
</g>
<g id="Layer_1">
</g>
</svg>
