<?xml version="1.0" encoding="iso-8859-1"?>
<!-- Generator: Adobe Illustrator 16.0.0, SVG Export Plug-In . SVG Version: 6.00 Build 0)  -->
<!DOCTYPE svg PUBLIC "-//W3C//DTD SVG 1.1//EN" "http://www.w3.org/Graphics/SVG/1.1/DTD/svg11.dtd">
<svg version="1.1" xmlns="http://www.w3.org/2000/svg" xmlns:xlink="http://www.w3.org/1999/xlink" x="0px" y="0px"
	 width="28.001px" height="63.98px" viewBox="0 0 28.001 63.98" style="enable-background:new 0 0 28.001 63.98;"
	 xml:space="preserve">
<g id="Layer_16">
	<path d="M27.954,31.568l-5-22.962c-0.021-0.1-0.051-0.196-0.086-0.289C21.761,4.249,20.018,0,14,0C7.984,0,6.24,4.247,5.132,8.315
		c-0.036,0.094-0.064,0.19-0.086,0.291l-5,22.962c-0.218,0.999,0.354,2.002,1.324,2.324L12,37.424v3.557h-1c-1.104,0-2,0.896-2,2v19
		c0,1.104,0.896,2,2,2h6c1.104,0,2-0.896,2-2v-19c0-1.104-0.896-2-2-2h-1v-3.557l10.631-3.531
		C27.601,33.57,28.172,32.567,27.954,31.568z M15,59.98h-2v-15h2V59.98z M16,33.209V24.98c0-1.104-0.896-2-2-2s-2,0.896-2,2v8.229
		l-7.663-2.546l4.57-20.986c0.009-0.029,0.018-0.059,0.025-0.089C10.117,5.149,11.159,4,14,4s3.883,1.149,5.068,5.588
		c0.008,0.03,0.016,0.06,0.025,0.088l4.569,20.987L16,33.209z"/>
</g>
<g id="Layer_1">
</g>
</svg>
