<?xml version="1.0" encoding="iso-8859-1"?>
<!-- Generator: Adobe Illustrator 16.0.0, SVG Export Plug-In . SVG Version: 6.00 Build 0)  -->
<!DOCTYPE svg PUBLIC "-//W3C//DTD SVG 1.1//EN" "http://www.w3.org/Graphics/SVG/1.1/DTD/svg11.dtd">
<svg version="1.1" xmlns="http://www.w3.org/2000/svg" xmlns:xlink="http://www.w3.org/1999/xlink" x="0px" y="0px" width="64px"
	 height="64px" viewBox="0 0 64 64" style="enable-background:new 0 0 64 64;" xml:space="preserve">
<g id="Layer_55">
	<path d="M63.414,26.586l-30-26c-0.78-0.781-2.048-0.781-2.828,0l-30,26c-0.781,0.781-0.781,2.047,0,2.828
		c0.78,0.779,2.047,0.781,2.828,0L4,28.906V58c0,3.299,2.7,6,6,6h44c3.3,0,6-2.701,6-6V28.906l0.586,0.508
		c0.781,0.781,2.048,0.779,2.828,0C64.195,28.633,64.195,27.367,63.414,26.586z M18,60v-2h28v2H18z M18,42v-2h28v2H18z M46,46v2H18
		v-2H46z M18,52h28v2H18V52z M46,36H18v-2h28V36z M56,58c0,1.1-0.9,2-2,2h-4V32c0-1.105-0.896-2-2-2H16c-1.104,0-2,0.895-2,2v28h-4
		c-1.1,0-2-0.9-2-2V25.439L32,4.639l24,20.801V58z"/>
</g>
<g id="Layer_1">
</g>
</svg>
