<?xml version="1.0" encoding="iso-8859-1"?>
<!-- Generator: Adobe Illustrator 16.0.0, SVG Export Plug-In . SVG Version: 6.00 Build 0)  -->
<!DOCTYPE svg PUBLIC "-//W3C//DTD SVG 1.1//EN" "http://www.w3.org/Graphics/SVG/1.1/DTD/svg11.dtd">
<svg version="1.1" xmlns="http://www.w3.org/2000/svg" xmlns:xlink="http://www.w3.org/1999/xlink" x="0px" y="0px" width="48px"
	 height="64px" viewBox="0 0 48 64" style="enable-background:new 0 0 48 64;" xml:space="preserve">
<g id="Layer_19">
	<g>
		<circle cx="34" cy="8" r="2"/>
		<circle cx="40" cy="8" r="2"/>
		<path d="M46,0H2C0.896,0,0,0.896,0,2v60c0,1.104,0.896,2,2,2h44c1.104,0,2-0.896,2-2V2C48,0.896,47.104,0,46,0z M44,12H16V4h28V12
			z M12,4v8H4V4H12z M4,60V16h40v44H4z"/>
		<path d="M39.923,36.479C39.154,28.369,32.309,22,24,22c-8.309,0-15.154,6.369-15.923,14.479C8.032,36.646,8,36.818,8,37
			c0,0.176,0.011,0.35,0.024,0.521C8.02,37.682,8,37.839,8,38c0,8.822,7.178,16,16,16s16-7.178,16-16
			c0-0.161-0.02-0.318-0.024-0.479C39.989,37.35,40,37.176,40,37C40,36.818,39.969,36.646,39.923,36.479z M24,26
			c6.412,0,11.65,5.059,11.969,11.393C35.828,38.297,35.213,39,34.5,39c-0.812,0-1.5-0.916-1.5-2c0-1.104-0.896-2-2-2s-2,0.896-2,2
			c0,1.084-0.688,2-1.5,2S26,38.084,26,37c0-1.104-0.896-2-2-2s-2,0.896-2,2c0,1.084-0.687,2-1.5,2S19,38.084,19,37
			c0-1.104-0.896-2-2-2s-2,0.896-2,2c0,1.084-0.687,2-1.5,2c-0.712,0-1.328-0.703-1.469-1.607C12.35,31.059,17.588,26,24,26z M24,50
			c-4.84,0-9.009-2.886-10.905-7.022C13.229,42.988,13.363,43,13.5,43c1.329,0,2.548-0.517,3.5-1.375
			C17.952,42.483,19.171,43,20.5,43s2.548-0.517,3.5-1.375C24.952,42.483,26.172,43,27.5,43s2.549-0.517,3.5-1.375
			C31.951,42.483,33.172,43,34.5,43c0.137,0,0.271-0.012,0.405-0.022C33.01,47.114,28.84,50,24,50z"/>
	</g>
</g>
<g id="Layer_1">
</g>
</svg>
